<svg width="24" height="24" viewBox="0 0 24 24" fill="none" xmlns="http://www.w3.org/2000/svg">
<path d="M9.55 12.0001L16.9 19.3501C17.15 19.6001 17.271 19.8918 17.263 20.2251C17.255 20.5584 17.1257 20.8501 16.875 21.1001C16.6243 21.3501 16.3327 21.4751 16 21.4751C15.6673 21.4751 15.3757 21.3501 15.125 21.1001L7.425 13.4251C7.225 13.2251 7.075 13.0001 6.975 12.7501C6.875 12.5001 6.825 12.2501 6.825 12.0001C6.825 11.7501 6.875 11.5001 6.975 11.2501C7.075 11.0001 7.225 10.7751 7.425 10.5751L15.125 2.87509C15.375 2.62509 15.671 2.50409 16.013 2.51209C16.355 2.52009 16.6507 2.64942 16.9 2.90009C17.1493 3.15076 17.2743 3.44242 17.275 3.77509C17.2757 4.10776 17.1507 4.39942 16.9 4.65009L9.55 12.0001Z" fill="#DBDCDD"/>
</svg>
