<svg width="12" height="20" viewBox="0 0 12 20" fill="none" xmlns="http://www.w3.org/2000/svg">
<path d="M8.45 9.99991L1.1 2.64991C0.849999 2.39991 0.728998 2.10824 0.736999 1.77491C0.744999 1.44157 0.874332 1.14991 1.125 0.899908C1.37567 0.649908 1.66733 0.524908 2 0.524908C2.33267 0.524908 2.62433 0.649908 2.875 0.899908L10.575 8.57491C10.775 8.77491 10.925 8.99991 11.025 9.24991C11.125 9.49991 11.175 9.74991 11.175 9.99991C11.175 10.2499 11.125 10.4999 11.025 10.7499C10.925 10.9999 10.775 11.2249 10.575 11.4249L2.875 19.1249C2.625 19.3749 2.329 19.4959 1.987 19.4879C1.645 19.4799 1.34933 19.3506 1.1 19.0999C0.850666 18.8492 0.725666 18.5576 0.724999 18.2249C0.724333 17.8922 0.849333 17.6006 1.1 17.3499L8.45 9.99991Z" fill="#333333"/>
</svg>
