<svg width="24" height="24" viewBox="0 0 24 24" fill="none" xmlns="http://www.w3.org/2000/svg">
<g clip-path="url(#clip0_32_739)">
<path d="M18.8571 0H5.14286C2.30254 0 0 2.30254 0 5.14286V18.8571C0 21.6975 2.30254 24 5.14286 24H18.8571C21.6975 24 24 21.6975 24 18.8571V5.14286C24 2.30254 21.6975 0 18.8571 0Z" fill="url(#paint0_radial_32_739)"/>
<path d="M18.8571 0H5.14286C2.30254 0 0 2.30254 0 5.14286V18.8571C0 21.6975 2.30254 24 5.14286 24H18.8571C21.6975 24 24 21.6975 24 18.8571V5.14286C24 2.30254 21.6975 0 18.8571 0Z" fill="url(#paint1_radial_32_739)"/>
<path d="M18.8571 0H5.14286C2.30254 0 0 2.30254 0 5.14286V18.8571C0 21.6975 2.30254 24 5.14286 24H18.8571C21.6975 24 24 21.6975 24 18.8571V5.14286C24 2.30254 21.6975 0 18.8571 0Z" fill="url(#paint2_radial_32_739)"/>
<path d="M17.6088 7.12739C17.6088 7.82201 17.0456 8.38516 16.351 8.38516C15.6564 8.38516 15.0932 7.82201 15.0932 7.12739C15.0932 6.43275 15.6564 5.86963 16.351 5.86963C17.0456 5.86963 17.6088 6.43275 17.6088 7.12739Z" fill="white"/>
<path fill-rule="evenodd" clip-rule="evenodd" d="M11.7394 15.932C14.0549 15.932 15.932 14.0549 15.932 11.7394C15.932 9.42396 14.0549 7.54688 11.7394 7.54688C9.42396 7.54688 7.54688 9.42396 7.54688 11.7394C7.54688 14.0549 9.42396 15.932 11.7394 15.932ZM11.7394 14.2549C13.1287 14.2549 14.2549 13.1287 14.2549 11.7394C14.2549 10.3501 13.1287 9.22389 11.7394 9.22389C10.3501 9.22389 9.22389 10.3501 9.22389 11.7394C9.22389 13.1287 10.3501 14.2549 11.7394 14.2549Z" fill="white"/>
<path fill-rule="evenodd" clip-rule="evenodd" d="M3.35411 11.4037C3.35411 8.58605 3.35411 7.17719 3.90246 6.10101C4.38481 5.15435 5.15446 4.3847 6.10112 3.90236C7.17729 3.354 8.58616 3.354 11.4038 3.354H12.0746C14.8922 3.354 16.3011 3.354 17.3773 3.90236C18.3239 4.3847 19.0936 5.15435 19.5759 6.10101C20.1243 7.17719 20.1243 8.58605 20.1243 11.4037V12.0745C20.1243 14.8921 20.1243 16.301 19.5759 17.3771C19.0936 18.3238 18.3239 19.0935 17.3773 19.5758C16.3011 20.1242 14.8922 20.1242 12.0746 20.1242H11.4038C8.58616 20.1242 7.17729 20.1242 6.10112 19.5758C5.15446 19.0935 4.38481 18.3238 3.90246 17.3771C3.35411 16.301 3.35411 14.8921 3.35411 12.0745V11.4037ZM11.4038 5.03102H12.0746C13.5111 5.03102 14.4876 5.03233 15.2424 5.09399C15.9777 5.15407 16.3537 5.26295 16.616 5.39659C17.247 5.71816 17.7601 6.23126 18.0817 6.86233C18.2153 7.12461 18.3243 7.5006 18.3843 8.23589C18.4459 8.99071 18.4473 9.96716 18.4473 11.4037V12.0745C18.4473 13.511 18.4459 14.4875 18.3843 15.2423C18.3243 15.9776 18.2153 16.3536 18.0817 16.6159C17.7601 17.2469 17.247 17.76 16.616 18.0816C16.3537 18.2152 15.9777 18.3242 15.2424 18.3842C14.4876 18.4458 13.5111 18.4472 12.0746 18.4472H11.4038C9.96727 18.4472 8.99082 18.4458 8.236 18.3842C7.50071 18.3242 7.12472 18.2152 6.86243 18.0816C6.23136 17.76 5.71826 17.2469 5.39669 16.6159C5.26305 16.3536 5.15417 15.9776 5.0941 15.2423C5.03244 14.4875 5.03113 13.511 5.03113 12.0745V11.4037C5.03113 9.96716 5.03244 8.99071 5.0941 8.23589C5.15417 7.5006 5.26305 7.12461 5.39669 6.86233C5.71826 6.23126 6.23136 5.71816 6.86243 5.39659C7.12472 5.26295 7.50071 5.15407 8.236 5.09399C8.99082 5.03233 9.96727 5.03102 11.4038 5.03102Z" fill="white"/>
</g>
<defs>
<radialGradient id="paint0_radial_32_739" cx="0" cy="0" r="1" gradientUnits="userSpaceOnUse" gradientTransform="translate(8.57143 18) rotate(-55.3758) scale(21.8739)">
<stop stop-color="#B13589"/>
<stop offset="0.79309" stop-color="#C62F94"/>
<stop offset="1" stop-color="#8A3AC8"/>
</radialGradient>
<radialGradient id="paint1_radial_32_739" cx="0" cy="0" r="1" gradientUnits="userSpaceOnUse" gradientTransform="translate(7.71429 24.8571) rotate(-65.1363) scale(19.3665)">
<stop stop-color="#E0E8B7"/>
<stop offset="0.444662" stop-color="#FB8A2E"/>
<stop offset="0.71474" stop-color="#E2425C"/>
<stop offset="1" stop-color="#E2425C" stop-opacity="0"/>
</radialGradient>
<radialGradient id="paint2_radial_32_739" cx="0" cy="0" r="1" gradientUnits="userSpaceOnUse" gradientTransform="translate(-1.28571 0.857143) rotate(-8.1301) scale(33.3351 7.13002)">
<stop offset="0.156701" stop-color="#406ADC"/>
<stop offset="0.467799" stop-color="#6A45BE"/>
<stop offset="1" stop-color="#6A45BE" stop-opacity="0"/>
</radialGradient>
<clipPath id="clip0_32_739">
<rect width="24" height="24" fill="white"/>
</clipPath>
</defs>
</svg>
