<svg width="24" height="24" viewBox="0 0 24 24" fill="none" xmlns="http://www.w3.org/2000/svg">
<g clip-path="url(#clip0_32_749)">
<path d="M22.2295 9.08847e-05H1.77049C1.30629 -0.0046333 0.859174 0.174984 0.52725 0.499529C0.195326 0.824074 0.00570713 1.26704 0 1.73123V22.2727C0.00673925 22.7362 0.196812 23.1782 0.528624 23.5019C0.860435 23.8256 1.30696 24.0046 1.77049 23.9999H22.2295C22.6937 24.0036 23.1406 23.8234 23.4723 23.4986C23.8041 23.1739 23.9938 22.731 24 22.2668V1.72532C23.9917 1.2625 23.8011 0.821646 23.4696 0.49859C23.138 0.175535 22.6924 -0.00361171 22.2295 9.08847e-05Z" fill="#0076B2"/>
<path d="M3.62036 9.16695H7.25075V20.8479H3.62036V9.16695ZM5.43656 3.35352C5.85295 3.35352 6.25998 3.47701 6.60617 3.70839C6.95236 3.93976 7.22214 4.26862 7.38139 4.65335C7.54065 5.03808 7.58221 5.4614 7.50083 5.86976C7.41945 6.27812 7.21879 6.65316 6.92421 6.94745C6.62964 7.24174 6.25441 7.44205 5.84597 7.52305C5.43753 7.60403 5.01425 7.56207 4.62967 7.40245C4.2451 7.24283 3.9165 6.97273 3.68546 6.62632C3.45441 6.27991 3.3313 5.87276 3.3317 5.45638C3.33223 4.89848 3.55422 4.36361 3.94891 3.96931C4.34359 3.575 4.87866 3.35352 5.43656 3.35352Z" fill="white"/>
<path d="M9.52786 9.16744H13.0079V10.7711H13.056C13.5411 9.85302 14.7239 8.88479 16.49 8.88479C20.1664 8.87677 20.848 11.2964 20.848 14.4336V20.8484H17.2176V15.1653C17.2176 13.8122 17.1936 12.0701 15.3313 12.0701C13.469 12.0701 13.1522 13.5456 13.1522 15.0771V20.8484H9.52786V9.16744Z" fill="white"/>
</g>
<defs>
<clipPath id="clip0_32_749">
<rect width="24" height="24" fill="white"/>
</clipPath>
</defs>
</svg>
