<svg width="200" height="112" viewBox="0 0 200 112" fill="none" xmlns="http://www.w3.org/2000/svg">
<path d="M49.734 5.93684L44.2245 1.48656C43.319 0.75717 42.1525 0.409621 40.9807 0.520132C39.809 0.630644 38.7275 1.19019 37.9736 2.07608L3.42183 42.775C3.32745 42.8862 3.26142 43.0203 3.2135 43.1612C3.20722 43.1873 3.19228 43.2143 3.186 43.2405C3.17893 43.2582 3.1632 43.2767 3.16479 43.2936L0.0279059 57.3398C-0.0701921 57.7838 0.0954026 58.2455 0.445063 58.528C0.701014 58.7425 1.03324 58.8391 1.35357 58.8088C1.47478 58.7974 1.60306 58.7683 1.7203 58.7146L15.2895 53.0873C15.306 53.0772 15.3226 53.0671 15.3477 53.0562C15.3729 53.0453 15.3973 53.026 15.4225 53.0151C15.5555 52.9429 15.6695 52.8554 15.7639 52.7442L50.3149 12.0369C51.0692 11.1388 51.4352 10.0131 51.3274 8.86396C51.2196 7.71477 50.6499 6.66883 49.734 5.93684ZM34.5422 9.90992L37.8404 12.574L9.43196 46.0443L6.13381 43.3802L34.5422 9.90992ZM2.97053 55.5619L5.16093 45.7651L12.4282 51.6352L2.97053 55.5619ZM14.6399 50.2587L11.3417 47.5946L39.7588 14.1236L43.057 16.7876L14.6399 50.2587ZM48.3973 10.4957L44.6536 14.9065L36.1483 8.03647L39.892 3.62566C40.5763 2.81948 41.8049 2.69509 42.6365 3.36683L48.146 7.8171C48.5429 8.1377 48.7959 8.59975 48.8427 9.0983C48.8894 9.59684 48.7268 10.0981 48.3973 10.4957Z" fill="#1C1B1B"/>
<path d="M157.583 50.5626V2.00509H163.406V50.5626H157.583Z" fill="#1C1B1B"/>
<path d="M184.177 65.5698C181.392 65.5698 178.698 65.1806 176.095 64.4022C173.537 63.6239 171.231 62.2731 169.177 60.3501L171.711 55.7484C173.492 57.1678 175.387 58.2896 177.396 59.1138C179.451 59.938 181.597 60.3501 183.835 60.3501C187.579 60.3501 190.251 59.2512 191.849 57.0534C193.493 54.9014 194.315 52.1541 194.315 48.8116V44.4847C193.493 45.721 192.443 46.7512 191.164 47.5754C189.931 48.3538 188.561 48.949 187.054 49.3611C185.547 49.7274 183.995 49.9105 182.396 49.9105C178.835 49.9105 176.026 49.2008 173.971 47.7814C171.916 46.362 170.455 44.3932 169.587 41.8749C168.72 39.3566 168.286 36.4491 168.286 33.1524V13.1662H174.108V31.504C174.108 33.1524 174.2 34.7778 174.382 36.3804C174.611 37.9371 175.044 39.3566 175.684 40.6386C176.323 41.8749 177.259 42.8822 178.492 43.6606C179.725 44.3932 181.369 44.7595 183.424 44.7595C186.027 44.7595 188.104 44.1184 189.657 42.8364C191.255 41.5543 192.397 39.8373 193.082 37.6853C193.812 35.5333 194.178 33.1524 194.178 30.5425V13.1662H200V49.3611C200 51.971 199.658 54.2832 198.973 56.2979C198.288 58.3125 197.26 60.0067 195.89 61.3803C194.52 62.7539 192.854 63.7841 190.89 64.4709C188.972 65.2035 186.734 65.5698 184.177 65.5698Z" fill="#1C1B1B"/>
<path d="M120.338 62.8226V13.5783H125.886L126.16 19.0041C127.393 17.1268 129.059 15.6845 131.16 14.6772C133.306 13.6698 135.612 13.1662 138.078 13.1662C141.731 13.1662 144.722 13.9904 147.051 15.6387C149.38 17.2413 151.093 19.439 152.189 22.2321C153.33 25.0251 153.901 28.1844 153.901 31.7101C153.901 35.2357 153.33 38.395 152.189 41.1881C151.047 43.9811 149.289 46.1789 146.914 47.7814C144.54 49.384 141.503 50.1853 137.804 50.1853C135.978 50.1853 134.334 50.0021 132.872 49.6358C131.411 49.2237 130.133 48.6514 129.037 47.9188C127.941 47.1404 126.982 46.2476 126.16 45.2402V62.8226H120.338ZM137.325 45.0342C139.973 45.0342 142.074 44.439 143.626 43.2485C145.179 42.0122 146.298 40.3868 146.983 38.3721C147.713 36.3575 148.079 34.1368 148.079 31.7101C148.079 29.2375 147.713 26.994 146.983 24.9793C146.298 22.9647 145.156 21.3621 143.558 20.1716C141.96 18.9812 139.836 18.3859 137.188 18.3859C134.813 18.3859 132.781 19.0041 131.092 20.2403C129.448 21.4308 128.192 23.0563 127.324 25.1167C126.457 27.1313 126.023 29.352 126.023 31.7787C126.023 34.2971 126.434 36.5635 127.256 38.5782C128.078 40.5928 129.333 42.1725 131.023 43.3172C132.713 44.4618 134.813 45.0342 137.325 45.0342Z" fill="#1C1B1B"/>
<path d="M82.6652 62.8226V13.5783H88.2135L88.4875 19.0041C89.7204 17.1268 91.3871 15.6845 93.4877 14.6772C95.6339 13.6698 97.94 13.1662 100.406 13.1662C104.059 13.1662 107.05 13.9904 109.379 15.6387C111.708 17.2413 113.42 19.439 114.516 22.2321C115.658 25.0251 116.229 28.1844 116.229 31.7101C116.229 35.2357 115.658 38.395 114.516 41.1881C113.375 43.9811 111.616 46.1789 109.242 47.7814C106.867 49.384 103.831 50.1853 100.132 50.1853C98.3053 50.1853 96.6614 50.0021 95.2001 49.6358C93.7389 49.2237 92.4603 48.6514 91.3643 47.9188C90.2684 47.1404 89.3094 46.2476 88.4875 45.2402V62.8226H82.6652ZM99.6524 45.0342C102.301 45.0342 104.402 44.439 105.954 43.2485C107.507 42.0122 108.625 40.3868 109.31 38.3721C110.041 36.3575 110.406 34.1368 110.406 31.7101C110.406 29.2375 110.041 26.994 109.31 24.9793C108.625 22.9647 107.484 21.3621 105.886 20.1716C104.287 18.9812 102.164 18.3859 99.5154 18.3859C97.1409 18.3859 95.1088 19.0041 93.4192 20.2403C91.7753 21.4308 90.5195 23.0563 89.6519 25.1167C88.7843 27.1313 88.3505 29.352 88.3505 31.7787C88.3505 34.2971 88.7614 36.5635 89.5834 38.5782C90.4054 40.5928 91.6611 42.1725 93.3507 43.3172C95.0403 44.4618 97.1409 45.0342 99.6524 45.0342Z" fill="#1C1B1B"/>
<path d="M60.3687 50.1853C58.7248 50.1853 57.1266 49.9792 55.574 49.5671C54.0671 49.1093 52.6971 48.4454 51.4642 47.5754C50.2769 46.6596 49.318 45.5378 48.5873 44.21C47.9024 42.8364 47.5599 41.2567 47.5599 39.471C47.5599 37.4106 47.9252 35.6707 48.6558 34.2513C49.4321 32.8319 50.4596 31.7101 51.7382 30.8859C53.0168 30.0617 54.5009 29.4665 56.1905 29.1002C57.88 28.7339 59.6381 28.5507 61.4647 28.5507H72.0817C72.0817 26.4903 71.7849 24.7046 71.1912 23.1936C70.6432 21.6826 69.73 20.5151 68.4514 19.6909C67.1728 18.8209 65.4832 18.3859 63.3826 18.3859C62.104 18.3859 60.9167 18.5233 59.8208 18.798C58.7248 19.0728 57.7887 19.5077 57.0124 20.103C56.2361 20.6982 55.6653 21.4995 55.3 22.5068H49.0668C49.3865 20.8585 50.0029 19.4619 50.9162 18.3173C51.8752 17.1268 53.0168 16.1653 54.341 15.4327C55.711 14.6543 57.1722 14.0819 58.7248 13.7156C60.2774 13.3493 61.83 13.1662 63.3826 13.1662C68.5883 13.1662 72.2872 14.7001 74.4791 17.7678C76.671 20.8356 77.7669 24.9793 77.7669 30.1991V49.7732H72.9036L72.5611 45.1716C71.5565 46.5452 70.3464 47.5983 68.9308 48.3309C67.5152 49.0635 66.054 49.5442 64.547 49.7732C63.0858 50.0479 61.693 50.1853 60.3687 50.1853ZM60.9167 45.0342C63.1999 45.0342 65.1635 44.6679 66.8074 43.9353C68.497 43.1569 69.7985 42.0351 70.7117 40.5699C71.625 39.1047 72.0817 37.319 72.0817 35.2128V33.4271H65.7115C64.2046 33.4271 62.7205 33.45 61.2592 33.4958C59.7979 33.5416 58.4737 33.7247 57.2864 34.0452C56.0991 34.3657 55.1402 34.9152 54.4095 35.6936C53.7246 36.472 53.3821 37.5937 53.3821 39.0589C53.3821 40.4326 53.7246 41.5544 54.4095 42.4243C55.1402 43.2943 56.0763 43.9582 57.2179 44.4161C58.4052 44.8281 59.6381 45.0342 60.9167 45.0342Z" fill="#1C1B1B"/>
<path d="M158.68 111.5C154.844 111.5 151.67 110.722 149.159 109.165C146.647 107.562 144.775 105.364 143.542 102.571C142.309 99.7784 141.693 96.5962 141.693 93.0248C141.693 89.4076 142.332 86.2254 143.611 83.4781C144.935 80.6851 146.853 78.4873 149.364 76.8848C151.876 75.2822 154.958 74.4809 158.611 74.4809C161.442 74.4809 163.863 75.0304 165.872 76.1293C167.927 77.1824 169.616 78.6018 170.941 80.3875C172.265 82.1732 173.224 84.142 173.818 86.2941C174.411 88.4003 174.662 90.5294 174.571 92.6814C174.525 93.0935 174.48 93.5056 174.434 93.9177C174.434 94.3297 174.411 94.7418 174.365 95.1539H147.583C147.766 97.2601 148.291 99.1603 149.159 100.854C150.026 102.549 151.259 103.899 152.858 104.907C154.456 105.868 156.442 106.349 158.817 106.349C160.004 106.349 161.191 106.212 162.379 105.937C163.612 105.616 164.707 105.09 165.666 104.357C166.671 103.625 167.379 102.64 167.79 101.404H173.749C173.201 103.739 172.174 105.662 170.667 107.173C169.16 108.638 167.356 109.737 165.255 110.47C163.155 111.157 160.963 111.5 158.68 111.5ZM147.72 90.0715H168.612C168.566 88.0111 168.109 86.2025 167.242 84.6457C166.374 83.0889 165.187 81.8756 163.68 81.0056C162.219 80.1357 160.461 79.7007 158.406 79.7007C156.168 79.7007 154.273 80.1814 152.721 81.143C151.214 82.1045 150.049 83.3637 149.227 84.9204C148.405 86.4772 147.903 88.1942 147.72 90.0715Z" fill="#1C1B1B"/>
<path d="M27.4758 111.088V74.893H33.0925L33.3665 80.5248C34.2798 79.1054 35.3301 77.9608 36.5173 77.0908C37.7503 76.2208 39.0974 75.5798 40.5586 75.1677C42.0656 74.7099 43.6866 74.4809 45.4219 74.4809C45.7415 74.4809 46.0384 74.4809 46.3124 74.4809C46.632 74.4809 46.9517 74.4809 47.2713 74.4809V79.9754H45.1479C42.3167 79.9754 40.0107 80.5935 38.2297 81.8298C36.4945 83.0203 35.2387 84.6457 34.4624 86.7061C33.6861 88.7208 33.298 90.9644 33.298 93.4369V111.088H27.4758Z" fill="#1C1B1B"/>
<path d="M177.86 111.088V74.893H183.477L183.751 80.5248C184.664 79.1054 185.714 77.9608 186.901 77.0908C188.134 76.2208 189.481 75.5798 190.943 75.1677C192.45 74.7099 194.071 74.4809 195.806 74.4809C196.126 74.4809 196.422 74.4809 196.696 74.4809C197.016 74.4809 197.336 74.4809 197.655 74.4809V79.9754H195.532C192.701 79.9754 190.395 80.5935 188.614 81.8298C186.879 83.0203 185.623 84.6457 184.847 86.7061C184.07 88.7208 183.682 90.9644 183.682 93.4369V111.088H177.86Z" fill="#1C1B1B"/>
<path d="M59.24 111.5C57.596 111.5 55.9978 111.294 54.4452 110.882C52.9383 110.424 51.5683 109.76 50.3354 108.89C49.1481 107.974 48.1892 106.853 47.4585 105.525C46.7736 104.151 46.4311 102.571 46.4311 100.786C46.4311 98.7253 46.7964 96.9854 47.527 95.566C48.3033 94.1466 49.3308 93.0248 50.6094 92.2006C51.888 91.3765 53.3721 90.7812 55.0617 90.4149C56.7512 90.0486 58.5093 89.8655 60.3359 89.8655H70.9529C70.9529 87.805 70.6561 86.0193 70.0624 84.5083C69.5145 82.9974 68.6012 81.8298 67.3226 81.0056C66.044 80.1357 64.3544 79.7007 62.2538 79.7007C60.9752 79.7007 59.7879 79.838 58.692 80.1128C57.596 80.3875 56.6599 80.8225 55.8836 81.4177C55.1073 82.0129 54.5365 82.8142 54.1712 83.8215H47.938C48.2577 82.1732 48.8741 80.7767 49.7874 79.632C50.7464 78.4415 51.888 77.48 53.2122 76.7474C54.5822 75.969 56.0434 75.3967 57.596 75.0304C59.1486 74.6641 60.7012 74.4809 62.2538 74.4809C67.4596 74.4809 71.1584 76.0148 73.3503 79.0825C75.5422 82.1503 76.6381 86.2941 76.6381 91.5138V111.088H71.7748L71.4324 106.486C70.4277 107.86 69.2176 108.913 67.802 109.646C66.3864 110.378 64.9252 110.859 63.4183 111.088C61.957 111.363 60.5642 111.5 59.24 111.5ZM59.7879 106.349C62.0712 106.349 64.0347 105.983 65.6786 105.25C67.3682 104.472 68.6697 103.35 69.583 101.885C70.4962 100.419 70.9529 98.6338 70.9529 96.5275V94.7418H64.5827C63.0758 94.7418 61.5917 94.7647 60.1304 94.8105C58.6692 94.8563 57.3449 95.0394 56.1576 95.3599C54.9703 95.6805 54.0114 96.2299 53.2808 97.0083C52.5958 97.7867 52.2533 98.9085 52.2533 100.374C52.2533 101.747 52.5958 102.869 53.2808 103.739C54.0114 104.609 54.9475 105.273 56.0891 105.731C57.2764 106.143 58.5093 106.349 59.7879 106.349Z" fill="#1C1B1B"/>
<path d="M96.604 111.5C92.8139 111.5 89.663 110.722 87.1515 109.165C84.6856 107.562 82.8362 105.364 81.6033 102.571C80.416 99.7784 79.8224 96.6191 79.8224 93.0935C79.8224 89.6594 80.4388 86.5459 81.6718 83.7529C82.9504 80.914 84.8683 78.6705 87.4255 77.0221C90.0284 75.328 93.3162 74.4809 97.289 74.4809C99.7549 74.4809 101.947 74.893 103.865 75.7172C105.828 76.5413 107.449 77.7547 108.728 79.3573C110.007 80.914 110.897 82.8829 111.399 85.2638H105.44C104.755 83.2492 103.659 81.8298 102.152 81.0056C100.691 80.1357 98.9558 79.7007 96.9465 79.7007C94.2067 79.7007 92.0148 80.3417 90.3708 81.6237C88.7269 82.9058 87.5168 84.577 86.7405 86.6375C86.0099 88.6521 85.6446 90.8041 85.6446 93.0935C85.6446 95.4744 86.0327 97.6722 86.809 99.6869C87.5853 101.702 88.7954 103.327 90.4393 104.563C92.0833 105.754 94.2067 106.349 96.8095 106.349C98.7274 106.349 100.531 105.937 102.221 105.113C103.956 104.288 105.098 102.823 105.646 100.717H111.673C111.217 103.19 110.235 105.227 108.728 106.83C107.267 108.432 105.463 109.623 103.317 110.401C101.216 111.134 98.9786 111.5 96.604 111.5Z" fill="#1C1B1B"/>
<path d="M114.501 111.088V62.5307H120.324V90.4839H126.625L137.448 74.8933H144.023L131.968 92.1322L145.051 111.088H138.201L127.31 95.5663H120.324V111.088H114.501Z" fill="#1C1B1B"/>
<path d="M20.7271 111.088C17.9873 111.088 15.7726 110.676 14.083 109.852C12.4391 109.027 11.2289 107.745 10.4527 106.005C9.72202 104.266 9.3567 102.068 9.3567 99.4121V80.044H3.46599V74.8929H9.3567V64.11H15.1789V74.8929H24.8369V80.044H15.1789V98.7939C15.1789 101.266 15.6127 103.098 16.4804 104.288C17.3936 105.433 19.2202 106.005 21.9601 106.005H24.6315V111.088H20.7271Z" fill="#1C1B1B"/>
</svg>
