<svg width="72" height="41" viewBox="0 0 72 41" fill="none" xmlns="http://www.w3.org/2000/svg">
<path d="M17.9042 2.45922L15.9208 0.855518C15.5949 0.592674 15.1749 0.467431 14.7531 0.507255C14.3312 0.547079 13.9419 0.748718 13.6705 1.06796L1.23186 15.7342C1.19788 15.7743 1.17411 15.8226 1.15686 15.8734C1.1546 15.8828 1.14922 15.8925 1.14696 15.902C1.14441 15.9084 1.13875 15.915 1.13932 15.9211L0.0100461 20.9828C-0.0252692 21.1428 0.0343449 21.3092 0.160223 21.411C0.252365 21.4883 0.371965 21.5231 0.487285 21.5122C0.53092 21.5081 0.5771 21.4976 0.619308 21.4782L5.50422 19.4504C5.51017 19.4467 5.51612 19.4431 5.52518 19.4392C5.53425 19.4353 5.54303 19.4283 5.55209 19.4244C5.59996 19.3983 5.64103 19.3668 5.67501 19.3267L18.1134 4.65742C18.3849 4.33381 18.5167 3.92816 18.4779 3.51404C18.4391 3.09992 18.234 2.723 17.9042 2.45922ZM12.4352 3.89096L13.6225 4.85098L3.39551 16.9123L2.20817 15.9523L12.4352 3.89096ZM1.06939 20.3421L1.85794 16.8117L4.47415 18.9271L1.06939 20.3421ZM5.27035 18.4311L4.08302 17.471L14.3132 5.40939L15.5005 6.36941L5.27035 18.4311ZM17.423 4.10206L16.0753 5.69154L13.0134 3.21584L14.3611 1.62636C14.6075 1.33585 15.0498 1.29102 15.3491 1.53309L17.3326 3.13679C17.4755 3.25233 17.5665 3.41883 17.5834 3.59849C17.6002 3.77814 17.5417 3.95877 17.423 4.10206Z" fill="#1C1B1B"/>
<path d="M56.73 18.5406V1.04237H58.826V18.5406H56.73Z" fill="#1C1B1B"/>
<path d="M66.3038 23.9486C65.301 23.9486 64.3311 23.8083 63.3941 23.5278C62.4735 23.2473 61.6433 22.7606 60.9035 22.0676L61.8159 20.4093C62.4571 20.9208 63.1393 21.3251 63.8626 21.6221C64.6024 21.9191 65.375 22.0676 66.1805 22.0676C67.5285 22.0676 68.4902 21.6716 69.0656 20.8796C69.6574 20.1041 69.9533 19.1141 69.9533 17.9096V16.3504C69.6574 16.7959 69.2793 17.1671 68.819 17.4641C68.3752 17.7446 67.882 17.9591 67.3395 18.1076C66.797 18.2396 66.2381 18.3056 65.6627 18.3056C64.3804 18.3056 63.3694 18.0499 62.6297 17.5384C61.8899 17.0269 61.3638 16.3174 61.0515 15.4099C60.7392 14.5024 60.583 13.4546 60.583 12.2666V5.06439H62.679V11.6726C62.679 12.2666 62.7119 12.8524 62.7776 13.4299C62.8598 13.9909 63.016 14.5024 63.2461 14.9644C63.4763 15.4099 63.8133 15.7729 64.2571 16.0534C64.701 16.3174 65.2928 16.4494 66.0326 16.4494C66.9696 16.4494 67.7176 16.2184 68.2765 15.7564C68.8519 15.2944 69.2629 14.6756 69.5095 13.9001C69.7725 13.1246 69.904 12.2666 69.904 11.3261V5.06439H72V18.1076C72 19.0481 71.8767 19.8813 71.6301 20.6073C71.3835 21.3333 71.0136 21.9438 70.5205 22.4388C70.0273 22.9338 69.4273 23.3051 68.7204 23.5526C68.0299 23.8166 67.2244 23.9486 66.3038 23.9486Z" fill="#1C1B1B"/>
<path d="M43.3215 22.9586V5.21289H45.3189L45.4175 7.16813C45.8614 6.49163 46.4614 5.97189 47.2176 5.60889C47.9903 5.24589 48.8204 5.06439 49.7081 5.06439C51.0233 5.06439 52.1001 5.36139 52.9385 5.95539C53.7769 6.53289 54.3933 7.32488 54.7879 8.33138C55.1988 9.33788 55.4043 10.4764 55.4043 11.7469C55.4043 13.0174 55.1988 14.1559 54.7879 15.1624C54.3769 16.1689 53.744 16.9609 52.8891 17.5384C52.0343 18.1159 50.9411 18.4046 49.6095 18.4046C48.9519 18.4046 48.3601 18.3386 47.8341 18.2066C47.308 18.0581 46.8477 17.8519 46.4532 17.5879C46.0587 17.3074 45.7134 16.9856 45.4175 16.6226V22.9586H43.3215ZM49.4369 16.5484C50.3904 16.5484 51.1466 16.3339 51.7055 15.9049C52.2644 15.4594 52.6672 14.8736 52.9138 14.1476C53.1768 13.4216 53.3083 12.6214 53.3083 11.7469C53.3083 10.8559 53.1768 10.0474 52.9138 9.32138C52.6672 8.59538 52.2562 8.01788 51.6809 7.58888C51.1055 7.15988 50.3411 6.94538 49.3876 6.94538C48.5327 6.94538 47.8012 7.16813 47.193 7.61363C46.6011 8.04263 46.1491 8.62838 45.8367 9.37088C45.5244 10.0969 45.3682 10.8971 45.3682 11.7716C45.3682 12.6791 45.5162 13.4959 45.8121 14.2219C46.108 14.9479 46.56 15.5171 47.1683 15.9296C47.7765 16.3421 48.5327 16.5484 49.4369 16.5484Z" fill="#1C1B1B"/>
<path d="M29.7595 22.9586V5.21289H31.7568L31.8555 7.16813C32.2993 6.49163 32.8994 5.97189 33.6556 5.60889C34.4282 5.24589 35.2584 5.06439 36.1461 5.06439C37.4613 5.06439 38.538 5.36139 39.3764 5.95539C40.2148 6.53289 40.8313 7.32488 41.2258 8.33138C41.6368 9.33788 41.8423 10.4764 41.8423 11.7469C41.8423 13.0174 41.6368 14.1559 41.2258 15.1624C40.8148 16.1689 40.1819 16.9609 39.3271 17.5384C38.4723 18.1159 37.3791 18.4046 36.0475 18.4046C35.3899 18.4046 34.7981 18.3386 34.272 18.2066C33.746 18.0581 33.2857 17.8519 32.8912 17.5879C32.4966 17.3074 32.1514 16.9856 31.8555 16.6226V22.9586H29.7595ZM35.8749 16.5484C36.8283 16.5484 37.5845 16.3339 38.1435 15.9049C38.7024 15.4594 39.1052 14.8736 39.3518 14.1476C39.6148 13.4216 39.7463 12.6214 39.7463 11.7469C39.7463 10.8559 39.6148 10.0474 39.3518 9.32138C39.1052 8.59538 38.6942 8.01788 38.1188 7.58888C37.5434 7.15988 36.779 6.94538 35.8256 6.94538C34.9707 6.94538 34.2392 7.16813 33.6309 7.61363C33.0391 8.04263 32.587 8.62838 32.2747 9.37088C31.9623 10.0969 31.8062 10.8971 31.8062 11.7716C31.8062 12.6791 31.9541 13.4959 32.25 14.2219C32.5459 14.9479 32.998 15.5171 33.6063 15.9296C34.2145 16.3421 34.9707 16.5484 35.8749 16.5484Z" fill="#1C1B1B"/>
<path d="M21.7327 18.4046C21.1409 18.4046 20.5656 18.3304 20.0066 18.1819C19.4641 18.0169 18.971 17.7776 18.5271 17.4641C18.0997 17.1341 17.7545 16.7299 17.4914 16.2514C17.2448 15.7564 17.1216 15.1871 17.1216 14.5436C17.1216 13.8011 17.2531 13.1741 17.5161 12.6626C17.7956 12.1511 18.1654 11.7469 18.6257 11.4499C19.086 11.1529 19.6203 10.9384 20.2286 10.8064C20.8368 10.6744 21.4697 10.6084 22.1273 10.6084H25.9494C25.9494 9.86588 25.8425 9.22238 25.6288 8.67788C25.4316 8.13338 25.1028 7.71263 24.6425 7.41563C24.1822 7.10213 23.5739 6.94538 22.8177 6.94538C22.3574 6.94538 21.93 6.99488 21.5355 7.09388C21.1409 7.19288 20.8039 7.34963 20.5245 7.56413C20.245 7.77863 20.0395 8.06738 19.908 8.43038H17.664C17.7791 7.83638 18.0011 7.33313 18.3298 6.92063C18.6751 6.49163 19.086 6.14514 19.5628 5.88114C20.056 5.60064 20.582 5.39439 21.1409 5.26239C21.6999 5.13039 22.2588 5.06439 22.8177 5.06439C24.6918 5.06439 26.0234 5.61714 26.8125 6.72263C27.6015 7.82813 27.9961 9.32138 27.9961 11.2024V18.2561H26.2453L26.122 16.5979C25.7604 17.0929 25.3247 17.4724 24.8151 17.7364C24.3055 18.0004 23.7794 18.1736 23.2369 18.2561C22.7109 18.3551 22.2095 18.4046 21.7327 18.4046ZM21.93 16.5484C22.752 16.5484 23.4589 16.4164 24.0507 16.1524C24.6589 15.8719 25.1274 15.4676 25.4562 14.9396C25.785 14.4116 25.9494 13.7681 25.9494 13.0091V12.3656H23.6561C23.1136 12.3656 22.5794 12.3739 22.0533 12.3904C21.5273 12.4069 21.0505 12.4729 20.6231 12.5884C20.1957 12.7039 19.8505 12.9019 19.5874 13.1824C19.3408 13.4629 19.2176 13.8671 19.2176 14.3951C19.2176 14.8901 19.3408 15.2944 19.5874 15.6079C19.8505 15.9214 20.1875 16.1606 20.5984 16.3256C21.0259 16.4741 21.4697 16.5484 21.93 16.5484Z" fill="#1C1B1B"/>
<path d="M57.1247 40.5C55.7438 40.5 54.6013 40.2195 53.6971 39.6585C52.793 39.081 52.119 38.289 51.6751 37.2825C51.2313 36.276 51.0093 35.1293 51.0093 33.8423C51.0093 32.5388 51.2395 31.392 51.6998 30.402C52.1765 29.3955 52.867 28.6035 53.7711 28.026C54.6753 27.4485 55.7849 27.1598 57.1001 27.1598C58.1193 27.1598 58.9906 27.3578 59.7139 27.7538C60.4537 28.1333 61.0619 28.6448 61.5386 29.2883C62.0154 29.9318 62.3606 30.6413 62.5743 31.4168C62.788 32.1758 62.8784 32.943 62.8456 33.7185C62.8291 33.867 62.8127 34.0155 62.7962 34.164C62.7962 34.3125 62.788 34.461 62.7716 34.6095H53.13C53.1957 35.3685 53.3848 36.0533 53.6971 36.6638C54.0095 37.2743 54.4533 37.761 55.0287 38.124C55.6041 38.4705 56.3192 38.6438 57.174 38.6438C57.6015 38.6438 58.0289 38.5943 58.4563 38.4953C58.9002 38.3798 59.2947 38.19 59.6399 37.926C60.0016 37.662 60.2564 37.3073 60.4043 36.8618H62.5496C62.3524 37.7033 61.9825 38.3963 61.44 38.9408C60.8975 39.4688 60.2482 39.8648 59.492 40.1287C58.7358 40.3763 57.9467 40.5 57.1247 40.5ZM53.1793 32.778H60.7002C60.6838 32.0355 60.5194 31.3838 60.2071 30.8228C59.8947 30.2618 59.4673 29.8245 58.9248 29.511C58.3988 29.1975 57.7658 29.0408 57.0261 29.0408C56.2206 29.0408 55.5383 29.214 54.9794 29.5605C54.4369 29.907 54.0177 30.3608 53.7218 30.9218C53.4259 31.4828 53.2451 32.1015 53.1793 32.778Z" fill="#1C1B1B"/>
<path d="M9.89128 40.3515V27.3083H11.9133L12.0119 29.3378C12.3407 28.8263 12.7188 28.4138 13.1462 28.1003C13.5901 27.7868 14.0751 27.5558 14.6011 27.4073C15.1436 27.2423 15.7272 27.1598 16.3519 27.1598C16.467 27.1598 16.5738 27.1598 16.6724 27.1598C16.7875 27.1598 16.9026 27.1598 17.0177 27.1598V29.1398H16.2532C15.234 29.1398 14.4038 29.3625 13.7627 29.808C13.138 30.237 12.6859 30.8228 12.4065 31.5653C12.127 32.2913 11.9873 33.0998 11.9873 33.9908V40.3515H9.89128Z" fill="#1C1B1B"/>
<path d="M64.0295 40.3515V27.3083H66.0516L66.1502 29.3378C66.479 28.8263 66.8571 28.4138 67.2845 28.1003C67.7284 27.7868 68.2133 27.5558 68.7394 27.4073C69.2819 27.2423 69.8655 27.1598 70.4902 27.1598C70.6052 27.1598 70.7121 27.1598 70.8107 27.1598C70.9258 27.1598 71.0409 27.1598 71.1559 27.1598V29.1398H70.3915C69.3723 29.1398 68.5421 29.3625 67.901 29.808C67.2763 30.237 66.8242 30.8228 66.5447 31.5653C66.2653 32.2913 66.1255 33.0998 66.1255 33.9908V40.3515H64.0295Z" fill="#1C1B1B"/>
<path d="M21.3264 40.5C20.7346 40.5 20.1592 40.4258 19.6003 40.2773C19.0578 40.1123 18.5646 39.873 18.1207 39.5595C17.6933 39.2295 17.3481 38.8253 17.0851 38.3468C16.8385 37.8518 16.7152 37.2825 16.7152 36.639C16.7152 35.8965 16.8467 35.2695 17.1097 34.758C17.3892 34.2465 17.7591 33.8423 18.2194 33.5453C18.6797 33.2483 19.2139 33.0338 19.8222 32.9018C20.4305 32.7698 21.0634 32.7038 21.7209 32.7038H25.543C25.543 31.9613 25.4362 31.3178 25.2225 30.7733C25.0252 30.2288 24.6964 29.808 24.2361 29.511C23.7758 29.1975 23.1676 29.0408 22.4114 29.0408C21.9511 29.0408 21.5237 29.0903 21.1291 29.1893C20.7346 29.2883 20.3976 29.445 20.1181 29.6595C19.8386 29.874 19.6331 30.1628 19.5016 30.5258H17.2577C17.3728 29.9318 17.5947 29.4285 17.9235 29.016C18.2687 28.587 18.6797 28.2405 19.1564 27.9765C19.6496 27.696 20.1756 27.4898 20.7346 27.3578C21.2935 27.2258 21.8524 27.1598 22.4114 27.1598C24.2854 27.1598 25.617 27.7125 26.4061 28.818C27.1952 29.9235 27.5897 31.4168 27.5897 33.2978V40.3515H25.8389L25.7157 38.6933C25.354 39.1883 24.9184 39.5678 24.4087 39.8318C23.8991 40.0958 23.3731 40.269 22.8306 40.3515C22.3045 40.4505 21.8031 40.5 21.3264 40.5ZM21.5237 38.6438C22.3456 38.6438 23.0525 38.5118 23.6443 38.2478C24.2526 37.9673 24.7211 37.563 25.0499 37.035C25.3786 36.507 25.543 35.8635 25.543 35.1045V34.461H23.2498C22.7073 34.461 22.173 34.4693 21.6469 34.4858C21.1209 34.5023 20.6442 34.5683 20.2167 34.6838C19.7893 34.7993 19.4441 34.9973 19.1811 35.2778C18.9345 35.5583 18.8112 35.9625 18.8112 36.4905C18.8112 36.9855 18.9345 37.3898 19.1811 37.7033C19.4441 38.0168 19.7811 38.256 20.1921 38.421C20.6195 38.5695 21.0634 38.6438 21.5237 38.6438Z" fill="#1C1B1B"/>
<path d="M34.7775 40.5C33.413 40.5 32.2787 40.2195 31.3745 39.6585C30.4868 39.081 29.821 38.289 29.3772 37.2825C28.9498 36.276 28.7361 35.1375 28.7361 33.867C28.7361 32.6295 28.958 31.5075 29.4018 30.501C29.8621 29.478 30.5526 28.6695 31.4732 28.0755C32.4102 27.465 33.5938 27.1598 35.024 27.1598C35.9118 27.1598 36.7008 27.3083 37.3913 27.6053C38.0982 27.9023 38.6818 28.3395 39.1421 28.917C39.6024 29.478 39.9229 30.1875 40.1038 31.0455H37.9584C37.7119 30.3195 37.3173 29.808 36.7748 29.511C36.2488 29.1975 35.6241 29.0408 34.9007 29.0408C33.9144 29.0408 33.1253 29.2718 32.5335 29.7338C31.9417 30.1958 31.5061 30.798 31.2266 31.5405C30.9636 32.2665 30.8321 33.042 30.8321 33.867C30.8321 34.725 30.9718 35.517 31.2512 36.243C31.5307 36.969 31.9664 37.5548 32.5582 38.0003C33.15 38.4293 33.9144 38.6438 34.8514 38.6438C35.5419 38.6438 36.1912 38.4953 36.7995 38.1983C37.4242 37.9013 37.8351 37.3733 38.0324 36.6143H40.2024C40.038 37.5053 39.6846 38.2395 39.1421 38.817C38.616 39.3945 37.9667 39.8235 37.194 40.104C36.4378 40.368 35.6323 40.5 34.7775 40.5Z" fill="#1C1B1B"/>
<path d="M41.2205 40.3516V22.8534H43.3165V32.9266H45.5851L49.4812 27.3084H51.8484L47.5085 33.5206L52.2183 40.3516H49.7524L45.8317 34.7581H43.3165V40.3516H41.2205Z" fill="#1C1B1B"/>
<path d="M7.46177 40.3515C6.47542 40.3515 5.67812 40.203 5.06987 39.906C4.47806 39.609 4.04242 39.147 3.76295 38.52C3.49993 37.893 3.36841 37.101 3.36841 36.144V29.1645H1.24776V27.3083H3.36841V23.4225H5.46441V27.3083H8.9413V29.1645H5.46441V35.9212C5.46441 36.8122 5.62058 37.4722 5.93293 37.9012C6.26171 38.3137 6.91928 38.52 7.90563 38.52H8.86732V40.3515H7.46177Z" fill="#1C1B1B"/>
</svg>
