<svg width="24" height="24" viewBox="0 0 24 24" fill="none" xmlns="http://www.w3.org/2000/svg">
<path d="M13.5 10.5C13.5 11.328 12.828 12 12 12C11.172 12 10.5 11.328 10.5 10.5C10.5 9.672 11.172 9 12 9C12.828 9 13.5 9.672 13.5 10.5ZM17 9C16.172 9 15.5 9.672 15.5 10.5C15.5 11.328 16.172 12 17 12C17.828 12 18.5 11.328 18.5 10.5C18.5 9.672 17.828 9 17 9ZM7 9C6.172 9 5.5 9.672 5.5 10.5C5.5 11.328 6.172 12 7 12C7.828 12 8.5 11.328 8.5 10.5C8.5 9.672 7.828 9 7 9ZM24 4V16C24 18.206 22.206 20 20 20H17.148L13.3 23.18C12.939 23.502 12.476 23.664 12.008 23.664C11.532 23.664 11.053 23.496 10.671 23.157L6.922 20H3.999C1.793 20 -0.000999451 18.206 -0.000999451 16V4C5.4948e-07 1.794 1.794 0 4 0H20C22.206 0 24 1.794 24 4ZM22 4C22 2.897 21.103 2 20 2H4C2.897 2 2 2.897 2 4V16C2 17.103 2.897 18 4 18H7.288C7.523 18 7.752 18.083 7.933 18.235L11.981 21.645L16.152 18.229C16.331 18.081 16.556 18 16.789 18H20.001C21.104 18 22.001 17.103 22.001 16L22 4Z" fill="#333333"/>
</svg>
